<?xml version="1.0" ?><svg clip-rule="evenodd" fill-rule="evenodd" image-rendering="optimizeQuality" shape-rendering="geometricPrecision" text-rendering="geometricPrecision" viewBox="0 0 500 500" xmlns="http://www.w3.org/2000/svg"><defs><linearGradient gradientUnits="userSpaceOnUse" id="a" x1="390.983" x2="109.017" y1="87.969" y2="87.969"><stop offset="0" stop-color="#008BFF"/><stop offset="1" stop-color="#0af"/></linearGradient><linearGradient gradientUnits="userSpaceOnUse" id="b" x1="360.005" x2="139.997" y1="295" y2="295"><stop offset="0" stop-color="#008BFF"/><stop offset="1" stop-color="#0af"/></linearGradient></defs><g><path d="M391 110c0-24-20-44-44-44h-194c-24 0-44 20-44 44h282z" fill="url(#a)" stroke="#434242" stroke-width="10"/><path d="M390 130h-280v294c0 20 16 36 36 36h208c20 0 36-16 36-36v-294z" fill="#434242" stroke="#434242" stroke-width="10"/><path d="M307 63c0-10-8-18-18-18h-78c-10 0-18 8-18 18h114z" fill="#434242"/><path d="M150 170h10c6 0 10 4 10 10v230c0 6-4 10-10 10h-10c-6 0-10-4-10-10v-230c0-6 4-10 10-10zm60 0h10c6 0 10 4 10 10v230c0 6-4 10-10 10h-10c-6 0-10-4-10-10v-230c0-6 4-10 10-10zm70 0h10c6 0 10 4 10 10v230c0 6-4 10-10 10h-10c-6 0-10-4-10-10v-230c0-6 4-10 10-10zm60 0h10c6 0 10 4 10 10v230c0 6-4 10-10 10h-10c-6 0-10-4-10-10v-230c0-6 4-10 10-10z" fill="url(#b)"/></g></svg>