<?xml version="1.0" encoding="UTF-8" standalone="no"?>
<!-- Created with Inkscape (http://www.inkscape.org/) -->

<svg
   xmlns:dc="http://purl.org/dc/elements/1.1/"
   xmlns:cc="http://creativecommons.org/ns#"
   xmlns:rdf="http://www.w3.org/1999/02/22-rdf-syntax-ns#"
   xmlns:svg="http://www.w3.org/2000/svg"
   xmlns="http://www.w3.org/2000/svg"
   xmlns:sodipodi="http://sodipodi.sourceforge.net/DTD/sodipodi-0.dtd"
   xmlns:inkscape="http://www.inkscape.org/namespaces/inkscape"
   width="210mm"
   height="297mm"
   viewBox="0 0 210 297"
   version="1.1"
   id="svg4780"
   inkscape:version="0.92.1 r"
   sodipodi:docname="semicircle.svg">
  <defs
     id="defs4774" />
  <sodipodi:namedview
     id="base"
     pagecolor="#ffffff"
     bordercolor="#666666"
     borderopacity="1.0"
     inkscape:pageopacity="0.0"
     inkscape:pageshadow="2"
     inkscape:zoom="0.59954405"
     inkscape:cx="406.85799"
     inkscape:cy="561.25984"
     inkscape:document-units="mm"
     inkscape:current-layer="layer1"
     showgrid="false"
     inkscape:window-width="1635"
     inkscape:window-height="900"
     inkscape:window-x="110"
     inkscape:window-y="18"
     inkscape:window-maximized="0"
     inkscape:measure-start="687.189,291.888"
     inkscape:measure-end="333.587,470.357" />
  <metadata
     id="metadata4777">
    <rdf:RDF>
      <cc:Work
         rdf:about="">
        <dc:format>image/svg+xml</dc:format>
        <dc:type
           rdf:resource="http://purl.org/dc/dcmitype/StillImage" />
        <dc:title />
      </cc:Work>
    </rdf:RDF>
  </metadata>
  <g
     inkscape:label="Layer 1"
     inkscape:groupmode="layer"
     id="layer1"
     style="display:inline">
    <path
       id="path4595"
       transform="scale(0.26458333)"
       style="color:#000000;font-style:normal;font-variant:normal;font-weight:normal;font-stretch:normal;font-size:medium;line-height:normal;font-family:sans-serif;font-variant-ligatures:normal;font-variant-position:normal;font-variant-caps:normal;font-variant-numeric:normal;font-variant-alternates:normal;font-feature-settings:normal;text-indent:0;text-align:start;text-decoration:none;text-decoration-line:none;text-decoration-style:solid;text-decoration-color:#000000;letter-spacing:normal;word-spacing:normal;text-transform:none;writing-mode:lr-tb;direction:ltr;text-orientation:mixed;dominant-baseline:auto;baseline-shift:baseline;text-anchor:start;white-space:normal;shape-padding:0;clip-rule:nonzero;display:inline;overflow:visible;visibility:visible;opacity:1;isolation:auto;mix-blend-mode:normal;color-interpolation:sRGB;color-interpolation-filters:linearRGB;solid-color:#000000;solid-opacity:1;vector-effect:none;fill:#000000;fill-opacity:1;fill-rule:nonzero;stroke:none;stroke-width:48.92560196;stroke-linecap:square;stroke-linejoin:miter;stroke-miterlimit:4;stroke-dasharray:none;stroke-dashoffset:0;stroke-opacity:1;color-rendering:auto;image-rendering:auto;shape-rendering:auto;text-rendering:auto;enable-background:accumulate"
       d="m 400.30469,157.46289 c -220.99085,0 -401.7120304,175.00526 -410.927737,393.76172 0.907946,0.38419 1.8442458,0.69876 2.8359376,0.87305 0.2293909,0.0404 -0.3424637,-0.32747 -0.5527344,-0.42774 -0.2365453,-0.11262 -0.9301198,0 -0.7597656,-0.19922 0.3324548,-0.38849 4.1709839,-1.18842 4.2324219,-1.20312 6.4461425,-0.0658 12.8981491,0.27755 19.3632815,0.18945 1.361628,-0.043 2.723707,-0.0536 4.085937,-0.0566 1.476221,-0.93006 4.060495,-1.95022 8.759766,-4.08984 1.718526,-0.78244 3.776361,0.2047 5.664062,0.1582 0.269435,-0.008 0.715991,-0.0484 0.744141,-0.31641 0.03992,-0.38007 -2.641134,0.81538 0.296875,-0.35937 1.52997,-0.36134 3.073436,-0.50854 4.623047,-0.55469 C 50.757549,355.8163 207.78326,206.38281 400.30469,206.38281 c 196.53389,0 356.06419,155.7291 362.1875,350.75196 5.62184,-0.0251 11.24478,-0.064 16.86719,-0.0606 9.16598,0.0265 18.33201,0.0217 27.49804,0.0137 1.52726,-4e-4 3.05466,-4.4e-4 4.58203,0 -6.20059,-221.48451 -188.17284,-399.625 -411.13476,-399.625 z"
       inkscape:connector-curvature="0"
       sodipodi:nodetypes="ccccccccccsccscccccc" />
    <circle
       style="fill:#3f00ff;fill-opacity:1;stroke:#000f00;stroke-width:5.67904091;stroke-linecap:square;stroke-miterlimit:4;stroke-dasharray:none;stroke-opacity:1"
       id="path5327"
       cx="4.0995541"
       cy="140.53178"
       r="22.160479" />
    <circle
       style="fill:#3f00ff;fill-opacity:1;stroke:#000f00;stroke-width:5.67904091;stroke-linecap:square;stroke-miterlimit:4;stroke-dasharray:none;stroke-opacity:1"
       id="path5327-7"
       cx="206.97327"
       cy="140.33376"
       r="22.160479" />
    <path
       style="display:none;fill:none;stroke:#000000;stroke-width:0.26458332px;stroke-linecap:butt;stroke-linejoin:miter;stroke-opacity:1"
       d="M -23.389301,248.89747 191.52749,25.595838"
       id="path4560"
       inkscape:connector-curvature="0" />
    <path
       style="display:none;fill:none;stroke:#000000;stroke-width:0.26458332px;stroke-linecap:butt;stroke-linejoin:miter;stroke-opacity:1"
       d="M 32.308023,264.78455 247.22511,41.482913"
       id="path4560-3"
       inkscape:connector-curvature="0" />
  </g>
</svg>
